# MagicaVoxel @ Ephtracy

# group
o 

# material
mtllib untitled.mtl
usemtl palette

# normals
vn -1 0 0
vn 1 0 0
vn 0 0 1
vn 0 0 -1
vn 0 -1 0
vn 0 1 0

# texcoords
vt 0.216797 0.5
vt 0.306641 0.5
vt 0.330078 0.5
vt 0.333984 0.5
vt 0.591797 0.5

# verts
v -4.7 0 0.5
v -4.7 0 -0.7
v -4.7 0.1 0.5
v -4.7 0.1 0.3
v -4.7 0.1 -0.5
v -4.7 0.1 -0.7
v -4.7 1.5 0.5
v -4.7 1.5 0.3
v -4.7 1.5 -0.5
v -4.7 1.5 -0.7
v -2.2 0 2
v -2.2 0 0.5
v -2.2 0 -0.7
v -2.2 0 -2.2
v -2.2 0.1 2
v -2.2 0.1 0.5
v -2.2 0.1 0.4
v -2.2 0.1 0.3
v -2.2 0.1 -0.5
v -2.2 0.1 -0.6
v -2.2 0.1 -0.7
v -2.2 0.1 -2.2
v -2.2 0.2 1.8
v -2.2 0.2 0.6
v -2.2 0.2 -0.8
v -2.2 0.2 -2
v -2.2 1.2 0.3
v -2.2 1.2 0.2
v -2.2 1.2 -0.4
v -2.2 1.2 -0.5
v -2.2 1.3 0.2
v -2.2 1.3 0.0999999
v -2.2 1.3 -0.3
v -2.2 1.3 -0.4
v -2.2 1.4 0.0999999
v -2.2 1.4 -0.3
v -2.2 1.5 2
v -2.2 1.5 1.8
v -2.2 1.5 0.6
v -2.2 1.5 0.5
v -2.2 1.5 0.4
v -2.2 1.5 -0.6
v -2.2 1.5 -0.7
v -2.2 1.5 -0.8
v -2.2 1.5 -2
v -2.2 1.5 -2.2
v 1.9 0.1 1.9
v 1.9 0.1 1.4
v 1.9 0.1 0.9
v 1.9 0.1 0.4
v 1.9 0.1 -0.1
v 1.9 0.1 -0.6
v 1.9 0.1 -1.1
v 1.9 0.1 -1.6
v 1.9 0.1 -2.1
v 1.9 0.2 1.8
v 1.9 0.2 -2
v 1.9 1.5 1.9
v 1.9 1.5 1.8
v 1.9 1.5 -2
v 1.9 1.5 -2.1
v -4.6 0.1 0.4
v -4.6 0.1 0.3
v -4.6 0.1 -0.1
v -4.6 0.1 -0.5
v -4.6 0.1 -0.6
v -4.6 1.5 0.4
v -4.6 1.5 0.3
v -4.6 1.5 -0.5
v -4.6 1.5 -0.6
v -2.1 0.1 1.9
v -2.1 0.1 1.4
v -2.1 0.1 0.9
v -2.1 0.1 0.4
v -2.1 0.1 0.3
v -2.1 0.1 -0.5
v -2.1 0.1 -0.6
v -2.1 0.1 -1.1
v -2.1 0.1 -1.6
v -2.1 0.1 -2.1
v -2.1 0.2 1.8
v -2.1 0.2 0.6
v -2.1 0.2 -0.8
v -2.1 0.2 -2
v -2.1 1.2 0.3
v -2.1 1.2 0.2
v -2.1 1.2 -0.4
v -2.1 1.2 -0.5
v -2.1 1.3 0.2
v -2.1 1.3 0.0999999
v -2.1 1.3 -0.3
v -2.1 1.3 -0.4
v -2.1 1.4 0.0999999
v -2.1 1.4 -0.3
v -2.1 1.5 1.9
v -2.1 1.5 1.8
v -2.1 1.5 0.6
v -2.1 1.5 -0.8
v -2.1 1.5 -2
v -2.1 1.5 -2.1
v 2 0 2
v 2 0 -2.2
v 2 0.1 2
v 2 0.1 -2.2
v 2 0.2 1.8
v 2 0.2 -2
v 2 1.5 2
v 2 1.5 1.8
v 2 1.5 -2
v 2 1.5 -2.2
v -2.2 0 2
v -2.2 0.1 2
v -2.2 1.5 2
v -2 0.2 2
v -2 1.5 2
v 1.8 0.2 2
v 1.8 1.5 2
v 2 0 2
v 2 0.1 2
v 2 1.5 2
v -4.7 0 0.5
v -4.7 0.1 0.5
v -4.7 1.5 0.5
v -4.5 0.2 0.5
v -4.5 1.5 0.5
v -2.3 0.2 0.5
v -2.3 1.5 0.5
v -2.2 0 0.5
v -2.2 0.1 0.5
v -2.2 1.5 0.5
v -2.2 1.3 -0.3
v -2.2 1.4 -0.3
v -2.1 1.3 -0.3
v -2.1 1.4 -0.3
v -2.2 1.2 -0.4
v -2.2 1.3 -0.4
v -2.1 1.2 -0.4
v -2.1 1.3 -0.4
v -2.2 0.1 -0.5
v -2.2 1.2 -0.5
v -2.1 0.1 -0.5
v -2.1 1.2 -0.5
v -4.6 0.1 -0.6
v -4.6 1.5 -0.6
v -4.5 0.2 -0.6
v -4.5 1.5 -0.6
v -4.1 0.1 -0.6
v -3.6 0.1 -0.6
v -3.1 0.1 -0.6
v -2.6 0.1 -0.6
v -2.3 0.2 -0.6
v -2.3 1.5 -0.6
v -2.2 0.1 -0.6
v -2.2 1.5 -0.6
v -2.1 0.1 -2.1
v -2.1 1.5 -2.1
v -2 0.2 -2.1
v -2 1.5 -2.1
v -1.6 0.1 -2.1
v -1.1 0.1 -2.1
v -0.6 0.1 -2.1
v -0.0999999 0.1 -2.1
v 0.4 0.1 -2.1
v 0.9 0.1 -2.1
v 1.4 0.1 -2.1
v 1.8 0.2 -2.1
v 1.8 1.5 -2.1
v 1.9 0.1 -2.1
v 1.9 1.5 -2.1
v -2.1 0.1 1.9
v -2.1 1.5 1.9
v -2 0.2 1.9
v -2 1.5 1.9
v -1.6 0.1 1.9
v -1.1 0.1 1.9
v -0.6 0.1 1.9
v -0.0999999 0.1 1.9
v 0.4 0.1 1.9
v 0.9 0.1 1.9
v 1.4 0.1 1.9
v 1.8 0.2 1.9
v 1.8 1.5 1.9
v 1.9 0.1 1.9
v 1.9 1.5 1.9
v -4.6 0.1 0.4
v -4.6 1.5 0.4
v -4.5 0.2 0.4
v -4.5 1.5 0.4
v -4.1 0.1 0.4
v -3.6 0.1 0.4
v -3.1 0.1 0.4
v -2.6 0.1 0.4
v -2.3 0.2 0.4
v -2.3 1.5 0.4
v -2.2 0.1 0.4
v -2.2 1.5 0.4
v -2.2 0.1 0.3
v -2.2 1.2 0.3
v -2.1 0.1 0.3
v -2.1 1.2 0.3
v -2.2 1.2 0.2
v -2.2 1.3 0.2
v -2.1 1.2 0.2
v -2.1 1.3 0.2
v -2.2 1.3 0.0999999
v -2.2 1.4 0.0999999
v -2.1 1.3 0.0999999
v -2.1 1.4 0.0999999
v -4.7 0 -0.7
v -4.7 0.1 -0.7
v -4.7 1.5 -0.7
v -4.5 0.2 -0.7
v -4.5 1.5 -0.7
v -2.3 0.2 -0.7
v -2.3 1.5 -0.7
v -2.2 0 -0.7
v -2.2 0.1 -0.7
v -2.2 1.5 -0.7
v -2.2 0 -2.2
v -2.2 0.1 -2.2
v -2.2 1.5 -2.2
v -2 0.2 -2.2
v -2 1.5 -2.2
v 1.8 0.2 -2.2
v 1.8 1.5 -2.2
v 2 0 -2.2
v 2 0.1 -2.2
v 2 1.5 -2.2
v -2.2 0 2
v 2 0 2
v -2.1 0 1.9
v -1.6 0 1.9
v -1.1 0 1.9
v -0.6 0 1.9
v -0.0999999 0 1.9
v 0.4 0 1.9
v 0.9 0 1.9
v 1.4 0 1.9
v -2.1 0 1.4
v -1.6 0 1.4
v -1.1 0 1.4
v -0.6 0 1.4
v -0.0999999 0 1.4
v 0.4 0 1.4
v 0.9 0 1.4
v 1.4 0 1.4
v 1.9 0 1.4
v -2.1 0 0.9
v -1.6 0 0.9
v -1.1 0 0.9
v -0.6 0 0.9
v -0.0999999 0 0.9
v 0.4 0 0.9
v 0.9 0 0.9
v 1.4 0 0.9
v 1.9 0 0.9
v -4.7 0 0.5
v -2.2 0 0.5
v -4.6 0 0.4
v -4.1 0 0.4
v -3.6 0 0.4
v -3.1 0 0.4
v -2.6 0 0.4
v -2.1 0 0.4
v -1.6 0 0.4
v -1.1 0 0.4
v -0.6 0 0.4
v -0.0999999 0 0.4
v 0.4 0 0.4
v 0.9 0 0.4
v 1.4 0 0.4
v 1.9 0 0.4
v -4.6 0 -0.1
v -4.1 0 -0.1
v -3.6 0 -0.1
v -3.1 0 -0.1
v -2.6 0 -0.1
v -2.1 0 -0.1
v -1.6 0 -0.1
v -1.1 0 -0.1
v -0.6 0 -0.1
v -0.0999999 0 -0.1
v 0.4 0 -0.1
v 0.9 0 -0.1
v 1.4 0 -0.1
v 1.9 0 -0.1
v -4.6 0 -0.6
v -4.1 0 -0.6
v -3.6 0 -0.6
v -3.1 0 -0.6
v -2.6 0 -0.6
v -2.1 0 -0.6
v -1.6 0 -0.6
v -1.1 0 -0.6
v -0.6 0 -0.6
v -0.0999999 0 -0.6
v 0.4 0 -0.6
v 0.9 0 -0.6
v 1.4 0 -0.6
v 1.9 0 -0.6
v -4.7 0 -0.7
v -2.2 0 -0.7
v -2.1 0 -1.1
v -1.6 0 -1.1
v -1.1 0 -1.1
v -0.6 0 -1.1
v -0.0999999 0 -1.1
v 0.4 0 -1.1
v 0.9 0 -1.1
v 1.4 0 -1.1
v 1.9 0 -1.1
v -2.1 0 -1.6
v -1.6 0 -1.6
v -1.1 0 -1.6
v -0.6 0 -1.6
v -0.0999999 0 -1.6
v 0.4 0 -1.6
v 0.9 0 -1.6
v 1.4 0 -1.6
v 1.9 0 -1.6
v -1.6 0 -2.1
v -1.1 0 -2.1
v -0.6 0 -2.1
v -0.0999999 0 -2.1
v 0.4 0 -2.1
v 0.9 0 -2.1
v 1.4 0 -2.1
v 1.9 0 -2.1
v -2.2 0 -2.2
v 2 0 -2.2
v -2.2 1.2 0.3
v -2.1 1.2 0.3
v -2.2 1.2 0.2
v -2.1 1.2 0.2
v -2.2 1.2 -0.4
v -2.1 1.2 -0.4
v -2.2 1.2 -0.5
v -2.1 1.2 -0.5
v -2.2 1.3 0.2
v -2.1 1.3 0.2
v -2.2 1.3 0.0999999
v -2.1 1.3 0.0999999
v -2.2 1.3 -0.3
v -2.1 1.3 -0.3
v -2.2 1.3 -0.4
v -2.1 1.3 -0.4
v -2.2 1.4 0.0999999
v -2.1 1.4 0.0999999
v -2.2 1.4 -0.3
v -2.1 1.4 -0.3
v -2.1 0.1 1.9
v -1.6 0.1 1.9
v -1.1 0.1 1.9
v -0.6 0.1 1.9
v -0.0999999 0.1 1.9
v 0.4 0.1 1.9
v 0.9 0.1 1.9
v 1.4 0.1 1.9
v 1.9 0.1 1.9
v -2.1 0.1 1.4
v -1.6 0.1 1.4
v -1.1 0.1 1.4
v -0.6 0.1 1.4
v -0.0999999 0.1 1.4
v 0.4 0.1 1.4
v 0.9 0.1 1.4
v 1.4 0.1 1.4
v 1.9 0.1 1.4
v -2.1 0.1 0.9
v -1.6 0.1 0.9
v -1.1 0.1 0.9
v -0.6 0.1 0.9
v -0.0999999 0.1 0.9
v 0.4 0.1 0.9
v 0.9 0.1 0.9
v 1.4 0.1 0.9
v 1.9 0.1 0.9
v -4.6 0.1 0.4
v -4.1 0.1 0.4
v -3.6 0.1 0.4
v -3.1 0.1 0.4
v -2.6 0.1 0.4
v -2.2 0.1 0.4
v -2.1 0.1 0.4
v -1.6 0.1 0.4
v -1.1 0.1 0.4
v -0.6 0.1 0.4
v -0.0999999 0.1 0.4
v 0.4 0.1 0.4
v 0.9 0.1 0.4
v 1.4 0.1 0.4
v 1.9 0.1 0.4
v -4.6 0.1 0.3
v -2.2 0.1 0.3
v -2.1 0.1 0.3
v -4.6 0.1 -0.1
v -4.1 0.1 -0.1
v -3.6 0.1 -0.1
v -3.1 0.1 -0.1
v -2.6 0.1 -0.1
v -2.1 0.1 -0.1
v -1.6 0.1 -0.1
v -1.1 0.1 -0.1
v -0.6 0.1 -0.1
v -0.0999999 0.1 -0.1
v 0.4 0.1 -0.1
v 0.9 0.1 -0.1
v 1.4 0.1 -0.1
v 1.9 0.1 -0.1
v -4.6 0.1 -0.5
v -2.2 0.1 -0.5
v -2.1 0.1 -0.5
v -4.6 0.1 -0.6
v -4.1 0.1 -0.6
v -3.6 0.1 -0.6
v -3.1 0.1 -0.6
v -2.6 0.1 -0.6
v -2.2 0.1 -0.6
v -2.1 0.1 -0.6
v -1.6 0.1 -0.6
v -1.1 0.1 -0.6
v -0.6 0.1 -0.6
v -0.0999999 0.1 -0.6
v 0.4 0.1 -0.6
v 0.9 0.1 -0.6
v 1.4 0.1 -0.6
v 1.9 0.1 -0.6
v -2.1 0.1 -1.1
v -1.6 0.1 -1.1
v -1.1 0.1 -1.1
v -0.6 0.1 -1.1
v -0.0999999 0.1 -1.1
v 0.4 0.1 -1.1
v 0.9 0.1 -1.1
v 1.4 0.1 -1.1
v 1.9 0.1 -1.1
v -2.1 0.1 -1.6
v -1.6 0.1 -1.6
v -1.1 0.1 -1.6
v -0.6 0.1 -1.6
v -0.0999999 0.1 -1.6
v 0.4 0.1 -1.6
v 0.9 0.1 -1.6
v 1.4 0.1 -1.6
v 1.9 0.1 -1.6
v -2.1 0.1 -2.1
v -1.6 0.1 -2.1
v -1.1 0.1 -2.1
v -0.6 0.1 -2.1
v -0.0999999 0.1 -2.1
v 0.4 0.1 -2.1
v 0.9 0.1 -2.1
v 1.4 0.1 -2.1
v 1.9 0.1 -2.1
v -2.2 1.5 2
v -2 1.5 2
v 1.8 1.5 2
v 2 1.5 2
v -2.1 1.5 1.9
v -2 1.5 1.9
v 1.8 1.5 1.9
v 1.9 1.5 1.9
v -2.2 1.5 1.8
v -2.1 1.5 1.8
v 1.9 1.5 1.8
v 2 1.5 1.8
v -2.2 1.5 0.6
v -2.1 1.5 0.6
v -4.7 1.5 0.5
v -4.5 1.5 0.5
v -2.3 1.5 0.5
v -2.2 1.5 0.5
v -4.6 1.5 0.4
v -4.5 1.5 0.4
v -2.3 1.5 0.4
v -2.2 1.5 0.4
v -4.7 1.5 0.3
v -4.6 1.5 0.3
v -4.7 1.5 -0.5
v -4.6 1.5 -0.5
v -4.6 1.5 -0.6
v -4.5 1.5 -0.6
v -2.3 1.5 -0.6
v -2.2 1.5 -0.6
v -4.7 1.5 -0.7
v -4.5 1.5 -0.7
v -2.3 1.5 -0.7
v -2.2 1.5 -0.7
v -2.2 1.5 -0.8
v -2.1 1.5 -0.8
v -2.2 1.5 -2
v -2.1 1.5 -2
v 1.9 1.5 -2
v 2 1.5 -2
v -2.1 1.5 -2.1
v -2 1.5 -2.1
v 1.8 1.5 -2.1
v 1.9 1.5 -2.1
v -2.2 1.5 -2.2
v -2 1.5 -2.2
v 1.8 1.5 -2.2
v 2 1.5 -2.2

# faces
f 3/2/1 2/2/1 1/2/1
f 4/2/1 2/2/1 3/2/1
f 5/2/1 2/2/1 4/2/1
f 6/2/1 2/2/1 5/2/1
f 7/4/1 4/4/1 3/4/1
f 8/2/1 5/2/1 4/2/1
f 8/4/1 4/4/1 7/4/1
f 9/4/1 6/4/1 5/4/1
f 9/2/1 5/2/1 8/2/1
f 10/4/1 6/4/1 9/4/1
f 15/2/1 12/2/1 11/2/1
f 16/2/1 12/2/1 15/2/1
f 21/2/1 14/2/1 13/2/1
f 22/2/1 14/2/1 21/2/1
f 23/4/1 16/4/1 15/4/1
f 24/4/1 16/4/1 23/4/1
f 25/4/1 22/4/1 21/4/1
f 26/4/1 22/4/1 25/4/1
f 27/4/1 18/4/1 17/4/1
f 30/4/1 20/4/1 19/4/1
f 31/4/1 28/4/1 27/4/1
f 34/4/1 30/4/1 29/4/1
f 35/4/1 32/4/1 31/4/1
f 36/4/1 34/4/1 33/4/1
f 37/4/1 23/4/1 15/4/1
f 38/2/1 24/2/1 23/2/1
f 38/4/1 23/4/1 37/4/1
f 39/4/1 16/4/1 24/4/1
f 39/2/1 24/2/1 38/2/1
f 40/4/1 16/4/1 39/4/1
f 41/4/1 35/4/1 31/4/1
f 41/4/1 36/4/1 35/4/1
f 41/4/1 27/4/1 17/4/1
f 41/4/1 31/4/1 27/4/1
f 42/4/1 34/4/1 36/4/1
f 42/4/1 36/4/1 41/4/1
f 42/4/1 20/4/1 30/4/1
f 42/4/1 30/4/1 34/4/1
f 43/4/1 25/4/1 21/4/1
f 44/2/1 26/2/1 25/2/1
f 44/4/1 25/4/1 43/4/1
f 45/4/1 22/4/1 26/4/1
f 45/2/1 26/2/1 44/2/1
f 46/4/1 22/4/1 45/4/1
f 56/4/1 48/4/1 47/4/1
f 56/4/1 55/4/1 54/4/1
f 56/4/1 54/4/1 53/4/1
f 56/4/1 53/4/1 52/4/1
f 56/4/1 52/4/1 51/4/1
f 56/4/1 51/4/1 50/4/1
f 56/4/1 50/4/1 49/4/1
f 56/4/1 49/4/1 48/4/1
f 57/4/1 55/4/1 56/4/1
f 58/4/1 56/4/1 47/4/1
f 59/2/1 57/2/1 56/2/1
f 59/4/1 56/4/1 58/4/1
f 60/4/1 55/4/1 57/4/1
f 60/2/1 57/2/1 59/2/1
f 61/4/1 55/4/1 60/4/1
f 62/4/2 63/4/2 67/4/2
f 63/2/2 64/2/2 68/2/2
f 67/4/2 63/4/2 68/4/2
f 64/2/2 65/2/2 68/2/2
f 65/4/2 66/4/2 69/4/2
f 68/2/2 65/2/2 69/2/2
f 69/4/2 66/4/2 70/4/2
f 71/4/2 72/4/2 81/4/2
f 72/4/2 73/4/2 81/4/2
f 73/4/2 74/4/2 81/4/2
f 74/4/2 75/4/2 81/4/2
f 81/4/2 75/4/2 82/4/2
f 79/4/2 80/4/2 83/4/2
f 78/4/2 79/4/2 83/4/2
f 77/4/2 78/4/2 83/4/2
f 76/4/2 77/4/2 83/4/2
f 83/4/2 80/4/2 84/4/2
f 82/4/2 75/4/2 85/4/2
f 76/4/2 83/4/2 88/4/2
f 85/4/2 86/4/2 89/4/2
f 87/4/2 88/4/2 92/4/2
f 89/4/2 90/4/2 93/4/2
f 91/4/2 92/4/2 94/4/2
f 71/4/2 81/4/2 95/4/2
f 81/2/2 82/2/2 96/2/2
f 95/4/2 81/4/2 96/4/2
f 93/4/2 94/4/2 97/4/2
f 96/2/2 82/2/2 97/2/2
f 89/4/2 93/4/2 97/4/2
f 82/4/2 85/4/2 97/4/2
f 85/4/2 89/4/2 97/4/2
f 94/4/2 92/4/2 98/4/2
f 97/4/2 94/4/2 98/4/2
f 83/2/2 84/2/2 98/2/2
f 88/4/2 83/4/2 98/4/2
f 92/4/2 88/4/2 98/4/2
f 84/4/2 80/4/2 99/4/2
f 98/2/2 84/2/2 99/2/2
f 99/4/2 80/4/2 100/4/2
f 101/2/2 102/2/2 103/2/2
f 103/2/2 102/2/2 104/2/2
f 103/4/2 104/4/2 105/4/2
f 105/4/2 104/4/2 106/4/2
f 103/4/2 105/4/2 107/4/2
f 105/2/2 106/2/2 108/2/2
f 107/4/2 105/4/2 108/4/2
f 106/4/2 104/4/2 109/4/2
f 108/2/2 106/2/2 109/2/2
f 109/4/2 104/4/2 110/4/2
f 114/4/3 113/4/3 112/4/3
f 115/4/3 113/4/3 114/4/3
f 116/4/3 114/4/3 112/4/3
f 116/2/3 115/2/3 114/2/3
f 117/2/3 115/2/3 116/2/3
f 118/2/3 112/2/3 111/2/3
f 119/4/3 116/4/3 112/4/3
f 119/2/3 112/2/3 118/2/3
f 119/4/3 117/4/3 116/4/3
f 120/4/3 117/4/3 119/4/3
f 124/4/3 123/4/3 122/4/3
f 125/4/3 123/4/3 124/4/3
f 126/4/3 124/4/3 122/4/3
f 126/2/3 125/2/3 124/2/3
f 127/2/3 125/2/3 126/2/3
f 128/2/3 122/2/3 121/2/3
f 129/4/3 126/4/3 122/4/3
f 129/2/3 122/2/3 128/2/3
f 129/4/3 127/4/3 126/4/3
f 130/4/3 127/4/3 129/4/3
f 133/4/3 132/4/3 131/4/3
f 134/4/3 132/4/3 133/4/3
f 137/4/3 136/4/3 135/4/3
f 138/4/3 136/4/3 137/4/3
f 141/4/3 140/4/3 139/4/3
f 142/4/3 140/4/3 141/4/3
f 145/4/3 144/4/3 143/4/3
f 146/4/3 144/4/3 145/4/3
f 147/4/3 145/4/3 143/4/3
f 148/4/3 145/4/3 147/4/3
f 149/4/3 145/4/3 148/4/3
f 150/4/3 145/4/3 149/4/3
f 151/2/3 146/2/3 145/2/3
f 151/4/3 145/4/3 150/4/3
f 152/2/3 146/2/3 151/2/3
f 153/4/3 151/4/3 150/4/3
f 153/4/3 152/4/3 151/4/3
f 154/4/3 152/4/3 153/4/3
f 157/4/3 156/4/3 155/4/3
f 158/4/3 156/4/3 157/4/3
f 159/4/3 157/4/3 155/4/3
f 160/4/3 157/4/3 159/4/3
f 161/4/3 157/4/3 160/4/3
f 162/4/3 157/4/3 161/4/3
f 163/4/3 157/4/3 162/4/3
f 164/4/3 157/4/3 163/4/3
f 165/4/3 157/4/3 164/4/3
f 166/2/3 158/2/3 157/2/3
f 166/4/3 157/4/3 165/4/3
f 167/2/3 158/2/3 166/2/3
f 168/4/3 166/4/3 165/4/3
f 168/4/3 167/4/3 166/4/3
f 169/4/3 167/4/3 168/4/3
f 170/4/4 171/4/4 172/4/4
f 172/4/4 171/4/4 173/4/4
f 170/4/4 172/4/4 174/4/4
f 174/4/4 172/4/4 175/4/4
f 175/4/4 172/4/4 176/4/4
f 176/4/4 172/4/4 177/4/4
f 177/4/4 172/4/4 178/4/4
f 178/4/4 172/4/4 179/4/4
f 179/4/4 172/4/4 180/4/4
f 172/2/4 173/2/4 181/2/4
f 180/4/4 172/4/4 181/4/4
f 181/2/4 173/2/4 182/2/4
f 180/4/4 181/4/4 183/4/4
f 181/4/4 182/4/4 183/4/4
f 183/4/4 182/4/4 184/4/4
f 185/4/4 186/4/4 187/4/4
f 187/4/4 186/4/4 188/4/4
f 185/4/4 187/4/4 189/4/4
f 189/4/4 187/4/4 190/4/4
f 190/4/4 187/4/4 191/4/4
f 191/4/4 187/4/4 192/4/4
f 187/2/4 188/2/4 193/2/4
f 192/4/4 187/4/4 193/4/4
f 193/2/4 188/2/4 194/2/4
f 192/4/4 193/4/4 195/4/4
f 193/4/4 194/4/4 195/4/4
f 195/4/4 194/4/4 196/4/4
f 197/4/4 198/4/4 199/4/4
f 199/4/4 198/4/4 200/4/4
f 201/4/4 202/4/4 203/4/4
f 203/4/4 202/4/4 204/4/4
f 205/4/4 206/4/4 207/4/4
f 207/4/4 206/4/4 208/4/4
f 210/4/4 211/4/4 212/4/4
f 212/4/4 211/4/4 213/4/4
f 210/4/4 212/4/4 214/4/4
f 212/2/4 213/2/4 214/2/4
f 214/2/4 213/2/4 215/2/4
f 209/2/4 210/2/4 216/2/4
f 210/4/4 214/4/4 217/4/4
f 216/2/4 210/2/4 217/2/4
f 214/4/4 215/4/4 217/4/4
f 217/4/4 215/4/4 218/4/4
f 220/4/4 221/4/4 222/4/4
f 222/4/4 221/4/4 223/4/4
f 220/4/4 222/4/4 224/4/4
f 222/2/4 223/2/4 224/2/4
f 224/2/4 223/2/4 225/2/4
f 219/2/4 220/2/4 226/2/4
f 220/4/4 224/4/4 227/4/4
f 226/2/4 220/2/4 227/2/4
f 224/4/4 225/4/4 227/4/4
f 227/4/4 225/4/4 228/4/4
f 231/2/5 230/2/5 229/2/5
f 232/2/5 230/2/5 231/2/5
f 233/2/5 230/2/5 232/2/5
f 234/2/5 230/2/5 233/2/5
f 235/2/5 230/2/5 234/2/5
f 236/2/5 230/2/5 235/2/5
f 237/2/5 230/2/5 236/2/5
f 238/2/5 230/2/5 237/2/5
f 239/2/5 231/2/5 229/2/5
f 239/3/5 232/3/5 231/3/5
f 240/2/5 233/2/5 232/2/5
f 240/3/5 232/3/5 239/3/5
f 241/3/5 234/3/5 233/3/5
f 241/2/5 233/2/5 240/2/5
f 242/2/5 235/2/5 234/2/5
f 242/3/5 234/3/5 241/3/5
f 243/3/5 236/3/5 235/3/5
f 243/2/5 235/2/5 242/2/5
f 244/2/5 237/2/5 236/2/5
f 244/3/5 236/3/5 243/3/5
f 245/3/5 238/3/5 237/3/5
f 245/2/5 237/2/5 244/2/5
f 246/2/5 230/2/5 238/2/5
f 246/3/5 238/3/5 245/3/5
f 247/2/5 230/2/5 246/2/5
f 248/2/5 239/2/5 229/2/5
f 248/2/5 240/2/5 239/2/5
f 249/3/5 241/3/5 240/3/5
f 249/2/5 240/2/5 248/2/5
f 250/2/5 242/2/5 241/2/5
f 250/3/5 241/3/5 249/3/5
f 251/3/5 243/3/5 242/3/5
f 251/2/5 242/2/5 250/2/5
f 252/2/5 244/2/5 243/2/5
f 252/3/5 243/3/5 251/3/5
f 253/3/5 245/3/5 244/3/5
f 253/2/5 244/2/5 252/2/5
f 254/2/5 246/2/5 245/2/5
f 254/3/5 245/3/5 253/3/5
f 255/3/5 247/3/5 246/3/5
f 255/2/5 246/2/5 254/2/5
f 256/2/5 230/2/5 247/2/5
f 256/3/5 247/3/5 255/3/5
f 258/2/5 248/2/5 229/2/5
f 259/2/5 258/2/5 257/2/5
f 260/2/5 258/2/5 259/2/5
f 261/2/5 258/2/5 260/2/5
f 262/2/5 258/2/5 261/2/5
f 263/2/5 258/2/5 262/2/5
f 264/3/5 249/3/5 248/3/5
f 264/2/5 258/2/5 263/2/5
f 264/2/5 248/2/5 258/2/5
f 265/2/5 250/2/5 249/2/5
f 265/3/5 249/3/5 264/3/5
f 266/3/5 251/3/5 250/3/5
f 266/2/5 250/2/5 265/2/5
f 267/2/5 252/2/5 251/2/5
f 267/3/5 251/3/5 266/3/5
f 268/3/5 253/3/5 252/3/5
f 268/2/5 252/2/5 267/2/5
f 269/2/5 254/2/5 253/2/5
f 269/3/5 253/3/5 268/3/5
f 270/3/5 255/3/5 254/3/5
f 270/2/5 254/2/5 269/2/5
f 271/2/5 256/2/5 255/2/5
f 271/3/5 255/3/5 270/3/5
f 272/2/5 230/2/5 256/2/5
f 272/2/5 256/2/5 271/2/5
f 273/2/5 259/2/5 257/2/5
f 273/1/5 260/1/5 259/1/5
f 274/5/5 261/5/5 260/5/5
f 274/1/5 260/1/5 273/1/5
f 275/1/5 262/1/5 261/1/5
f 275/5/5 261/5/5 274/5/5
f 276/5/5 263/5/5 262/5/5
f 276/1/5 262/1/5 275/1/5
f 277/1/5 264/1/5 263/1/5
f 277/5/5 263/5/5 276/5/5
f 278/2/5 265/2/5 264/2/5
f 278/1/5 264/1/5 277/1/5
f 279/3/5 266/3/5 265/3/5
f 279/2/5 265/2/5 278/2/5
f 280/2/5 267/2/5 266/2/5
f 280/3/5 266/3/5 279/3/5
f 281/3/5 268/3/5 267/3/5
f 281/2/5 267/2/5 280/2/5
f 282/2/5 269/2/5 268/2/5
f 282/3/5 268/3/5 281/3/5
f 283/3/5 270/3/5 269/3/5
f 283/2/5 269/2/5 282/2/5
f 284/2/5 271/2/5 270/2/5
f 284/3/5 270/3/5 283/3/5
f 285/3/5 272/3/5 271/3/5
f 285/2/5 271/2/5 284/2/5
f 286/2/5 230/2/5 272/2/5
f 286/3/5 272/3/5 285/3/5
f 287/5/5 274/5/5 273/5/5
f 287/2/5 273/2/5 257/2/5
f 288/1/5 275/1/5 274/1/5
f 288/5/5 274/5/5 287/5/5
f 289/5/5 276/5/5 275/5/5
f 289/1/5 275/1/5 288/1/5
f 290/1/5 277/1/5 276/1/5
f 290/5/5 276/5/5 289/5/5
f 291/5/5 278/5/5 277/5/5
f 291/1/5 277/1/5 290/1/5
f 292/3/5 279/3/5 278/3/5
f 292/5/5 278/5/5 291/5/5
f 293/2/5 280/2/5 279/2/5
f 293/3/5 279/3/5 292/3/5
f 294/3/5 281/3/5 280/3/5
f 294/2/5 280/2/5 293/2/5
f 295/2/5 282/2/5 281/2/5
f 295/3/5 281/3/5 294/3/5
f 296/3/5 283/3/5 282/3/5
f 296/2/5 282/2/5 295/2/5
f 297/2/5 284/2/5 283/2/5
f 297/3/5 283/3/5 296/3/5
f 298/3/5 285/3/5 284/3/5
f 298/2/5 284/2/5 297/2/5
f 299/2/5 286/2/5 285/2/5
f 299/3/5 285/3/5 298/3/5
f 300/2/5 230/2/5 286/2/5
f 300/2/5 286/2/5 299/2/5
f 301/2/5 290/2/5 289/2/5
f 301/2/5 289/2/5 288/2/5
f 301/2/5 293/2/5 292/2/5
f 301/2/5 292/2/5 291/2/5
f 301/2/5 287/2/5 257/2/5
f 301/2/5 288/2/5 287/2/5
f 301/2/5 291/2/5 290/2/5
f 302/2/5 293/2/5 301/2/5
f 303/2/5 293/2/5 302/2/5
f 304/3/5 294/3/5 293/3/5
f 304/2/5 293/2/5 303/2/5
f 305/2/5 295/2/5 294/2/5
f 305/3/5 294/3/5 304/3/5
f 306/3/5 296/3/5 295/3/5
f 306/2/5 295/2/5 305/2/5
f 307/2/5 297/2/5 296/2/5
f 307/3/5 296/3/5 306/3/5
f 308/3/5 298/3/5 297/3/5
f 308/2/5 297/2/5 307/2/5
f 309/2/5 299/2/5 298/2/5
f 309/3/5 298/3/5 308/3/5
f 310/3/5 300/3/5 299/3/5
f 310/2/5 299/2/5 309/2/5
f 311/2/5 230/2/5 300/2/5
f 311/3/5 300/3/5 310/3/5
f 312/3/5 304/3/5 303/3/5
f 312/2/5 303/2/5 302/2/5
f 313/2/5 305/2/5 304/2/5
f 313/3/5 304/3/5 312/3/5
f 314/3/5 306/3/5 305/3/5
f 314/2/5 305/2/5 313/2/5
f 315/2/5 307/2/5 306/2/5
f 315/3/5 306/3/5 314/3/5
f 316/3/5 308/3/5 307/3/5
f 316/2/5 307/2/5 315/2/5
f 317/2/5 309/2/5 308/2/5
f 317/3/5 308/3/5 316/3/5
f 318/3/5 310/3/5 309/3/5
f 318/2/5 309/2/5 317/2/5
f 319/2/5 311/2/5 310/2/5
f 319/3/5 310/3/5 318/3/5
f 320/2/5 230/2/5 311/2/5
f 320/2/5 311/2/5 319/2/5
f 321/3/5 314/3/5 313/3/5
f 321/2/5 313/2/5 312/2/5
f 322/2/5 315/2/5 314/2/5
f 322/3/5 314/3/5 321/3/5
f 323/3/5 316/3/5 315/3/5
f 323/2/5 315/2/5 322/2/5
f 324/2/5 317/2/5 316/2/5
f 324/3/5 316/3/5 323/3/5
f 325/3/5 318/3/5 317/3/5
f 325/2/5 317/2/5 324/2/5
f 326/2/5 319/2/5 318/2/5
f 326/3/5 318/3/5 325/3/5
f 327/3/5 320/3/5 319/3/5
f 327/2/5 319/2/5 326/2/5
f 328/2/5 230/2/5 320/2/5
f 328/3/5 320/3/5 327/3/5
f 329/2/5 323/2/5 322/2/5
f 329/2/5 322/2/5 321/2/5
f 329/2/5 328/2/5 327/2/5
f 329/2/5 327/2/5 326/2/5
f 329/2/5 324/2/5 323/2/5
f 329/2/5 312/2/5 302/2/5
f 329/2/5 321/2/5 312/2/5
f 329/2/5 326/2/5 325/2/5
f 329/2/5 325/2/5 324/2/5
f 330/2/5 230/2/5 328/2/5
f 330/2/5 328/2/5 329/2/5
f 333/4/5 332/4/5 331/4/5
f 334/4/5 332/4/5 333/4/5
f 337/4/5 336/4/5 335/4/5
f 338/4/5 336/4/5 337/4/5
f 341/4/5 340/4/5 339/4/5
f 342/4/5 340/4/5 341/4/5
f 345/4/5 344/4/5 343/4/5
f 346/4/5 344/4/5 345/4/5
f 349/4/5 348/4/5 347/4/5
f 350/4/5 348/4/5 349/4/5
f 351/3/6 352/3/6 360/3/6
f 352/2/6 353/2/6 361/2/6
f 360/3/6 352/3/6 361/3/6
f 353/3/6 354/3/6 362/3/6
f 361/2/6 353/2/6 362/2/6
f 354/2/6 355/2/6 363/2/6
f 362/3/6 354/3/6 363/3/6
f 355/3/6 356/3/6 364/3/6
f 363/2/6 355/2/6 364/2/6
f 356/2/6 357/2/6 365/2/6
f 364/3/6 356/3/6 365/3/6
f 357/3/6 358/3/6 366/3/6
f 365/2/6 357/2/6 366/2/6
f 358/2/6 359/2/6 367/2/6
f 366/3/6 358/3/6 367/3/6
f 367/2/6 359/2/6 368/2/6
f 360/2/6 361/2/6 369/2/6
f 361/3/6 362/3/6 370/3/6
f 369/2/6 361/2/6 370/2/6
f 362/2/6 363/2/6 371/2/6
f 370/3/6 362/3/6 371/3/6
f 363/3/6 364/3/6 372/3/6
f 371/2/6 363/2/6 372/2/6
f 364/2/6 365/2/6 373/2/6
f 372/3/6 364/3/6 373/3/6
f 365/3/6 366/3/6 374/3/6
f 373/2/6 365/2/6 374/2/6
f 366/2/6 367/2/6 375/2/6
f 374/3/6 366/3/6 375/3/6
f 367/3/6 368/3/6 376/3/6
f 375/2/6 367/2/6 376/2/6
f 376/3/6 368/3/6 377/3/6
f 369/3/6 370/3/6 384/3/6
f 370/2/6 371/2/6 385/2/6
f 384/3/6 370/3/6 385/3/6
f 371/3/6 372/3/6 386/3/6
f 385/2/6 371/2/6 386/2/6
f 372/2/6 373/2/6 387/2/6
f 386/3/6 372/3/6 387/3/6
f 373/3/6 374/3/6 388/3/6
f 387/2/6 373/2/6 388/2/6
f 374/2/6 375/2/6 389/2/6
f 388/3/6 374/3/6 389/3/6
f 375/3/6 376/3/6 390/3/6
f 389/2/6 375/2/6 390/2/6
f 376/2/6 377/2/6 391/2/6
f 390/3/6 376/3/6 391/3/6
f 391/2/6 377/2/6 392/2/6
f 378/1/6 379/1/6 393/1/6
f 382/1/6 383/1/6 394/1/6
f 384/2/6 385/2/6 395/2/6
f 393/1/6 379/1/6 396/1/6
f 379/5/6 380/5/6 397/5/6
f 396/1/6 379/1/6 397/1/6
f 380/1/6 381/1/6 398/1/6
f 397/5/6 380/5/6 398/5/6
f 381/5/6 382/5/6 399/5/6
f 398/1/6 381/1/6 399/1/6
f 394/1/6 395/1/6 400/1/6
f 399/5/6 382/5/6 400/5/6
f 382/1/6 394/1/6 400/1/6
f 395/2/6 385/2/6 401/2/6
f 400/1/6 395/1/6 401/1/6
f 385/3/6 386/3/6 402/3/6
f 401/2/6 385/2/6 402/2/6
f 386/2/6 387/2/6 403/2/6
f 402/3/6 386/3/6 403/3/6
f 387/3/6 388/3/6 404/3/6
f 403/2/6 387/2/6 404/2/6
f 388/2/6 389/2/6 405/2/6
f 404/3/6 388/3/6 405/3/6
f 389/3/6 390/3/6 406/3/6
f 405/2/6 389/2/6 406/2/6
f 390/2/6 391/2/6 407/2/6
f 406/3/6 390/3/6 407/3/6
f 391/3/6 392/3/6 408/3/6
f 407/2/6 391/2/6 408/2/6
f 408/3/6 392/3/6 409/3/6
f 396/5/6 397/5/6 410/5/6
f 400/5/6 401/5/6 411/5/6
f 401/3/6 402/3/6 412/3/6
f 411/5/6 401/5/6 412/5/6
f 410/5/6 397/5/6 413/5/6
f 397/1/6 398/1/6 414/1/6
f 413/5/6 397/5/6 414/5/6
f 398/5/6 399/5/6 415/5/6
f 414/1/6 398/1/6 415/1/6
f 399/1/6 400/1/6 416/1/6
f 415/5/6 399/5/6 416/5/6
f 400/5/6 411/5/6 417/5/6
f 416/1/6 400/1/6 417/1/6
f 417/5/6 411/5/6 418/5/6
f 412/3/6 402/3/6 419/3/6
f 402/2/6 403/2/6 420/2/6
f 419/3/6 402/3/6 420/3/6
f 403/3/6 404/3/6 421/3/6
f 420/2/6 403/2/6 421/2/6
f 404/2/6 405/2/6 422/2/6
f 421/3/6 404/3/6 422/3/6
f 405/3/6 406/3/6 423/3/6
f 422/2/6 405/2/6 423/2/6
f 406/2/6 407/2/6 424/2/6
f 423/3/6 406/3/6 424/3/6
f 407/3/6 408/3/6 425/3/6
f 424/2/6 407/2/6 425/2/6
f 408/2/6 409/2/6 426/2/6
f 425/3/6 408/3/6 426/3/6
f 426/2/6 409/2/6 427/2/6
f 419/2/6 420/2/6 428/2/6
f 420/3/6 421/3/6 429/3/6
f 428/2/6 420/2/6 429/2/6
f 421/2/6 422/2/6 430/2/6
f 429/3/6 421/3/6 430/3/6
f 422/3/6 423/3/6 431/3/6
f 430/2/6 422/2/6 431/2/6
f 423/2/6 424/2/6 432/2/6
f 431/3/6 423/3/6 432/3/6
f 424/3/6 425/3/6 433/3/6
f 432/2/6 424/2/6 433/2/6
f 425/2/6 426/2/6 434/2/6
f 433/3/6 425/3/6 434/3/6
f 426/3/6 427/3/6 435/3/6
f 434/2/6 426/2/6 435/2/6
f 435/3/6 427/3/6 436/3/6
f 428/3/6 429/3/6 437/3/6
f 429/2/6 430/2/6 438/2/6
f 437/3/6 429/3/6 438/3/6
f 430/3/6 431/3/6 439/3/6
f 438/2/6 430/2/6 439/2/6
f 431/2/6 432/2/6 440/2/6
f 439/3/6 431/3/6 440/3/6
f 432/3/6 433/3/6 441/3/6
f 440/2/6 432/2/6 441/2/6
f 433/2/6 434/2/6 442/2/6
f 441/3/6 433/3/6 442/3/6
f 434/3/6 435/3/6 443/3/6
f 442/2/6 434/2/6 443/2/6
f 435/2/6 436/2/6 444/2/6
f 443/3/6 435/3/6 444/3/6
f 444/2/6 436/2/6 445/2/6
f 437/2/6 438/2/6 446/2/6
f 438/3/6 439/3/6 447/3/6
f 446/2/6 438/2/6 447/2/6
f 439/2/6 440/2/6 448/2/6
f 447/3/6 439/3/6 448/3/6
f 440/3/6 441/3/6 449/3/6
f 448/2/6 440/2/6 449/2/6
f 441/2/6 442/2/6 450/2/6
f 449/3/6 441/3/6 450/3/6
f 442/3/6 443/3/6 451/3/6
f 450/2/6 442/2/6 451/2/6
f 443/2/6 444/2/6 452/2/6
f 451/3/6 443/3/6 452/3/6
f 444/3/6 445/3/6 453/3/6
f 452/2/6 444/2/6 453/2/6
f 453/3/6 445/3/6 454/3/6
f 455/4/6 456/4/6 459/4/6
f 456/2/6 457/2/6 460/2/6
f 459/4/6 456/4/6 460/4/6
f 457/4/6 458/4/6 461/4/6
f 460/2/6 457/2/6 461/2/6
f 461/4/6 458/4/6 462/4/6
f 455/4/6 459/4/6 463/4/6
f 463/4/6 459/4/6 464/4/6
f 462/4/6 458/4/6 465/4/6
f 465/4/6 458/4/6 466/4/6
f 463/2/6 464/2/6 467/2/6
f 467/2/6 464/2/6 468/2/6
f 467/4/6 468/4/6 472/4/6
f 469/4/6 470/4/6 473/4/6
f 470/2/6 471/2/6 474/2/6
f 473/4/6 470/4/6 474/4/6
f 471/4/6 472/4/6 475/4/6
f 474/2/6 471/2/6 475/2/6
f 472/4/6 468/4/6 476/4/6
f 475/4/6 472/4/6 476/4/6
f 469/4/6 473/4/6 477/4/6
f 477/4/6 473/4/6 478/4/6
f 477/2/6 478/2/6 479/2/6
f 479/2/6 478/2/6 480/2/6
f 479/4/6 480/4/6 481/4/6
f 476/4/6 468/4/6 484/4/6
f 479/4/6 481/4/6 485/4/6
f 481/4/6 482/4/6 485/4/6
f 482/2/6 483/2/6 486/2/6
f 485/4/6 482/4/6 486/4/6
f 483/4/6 484/4/6 487/4/6
f 486/2/6 483/2/6 487/2/6
f 484/4/6 468/4/6 488/4/6
f 487/4/6 484/4/6 488/4/6
f 488/4/6 468/4/6 489/4/6
f 489/4/6 468/4/6 490/4/6
f 489/2/6 490/2/6 491/2/6
f 491/2/6 490/2/6 492/2/6
f 465/2/6 466/2/6 493/2/6
f 493/2/6 466/2/6 494/2/6
f 491/4/6 492/4/6 495/4/6
f 493/4/6 494/4/6 498/4/6
f 491/4/6 495/4/6 499/4/6
f 495/4/6 496/4/6 499/4/6
f 496/2/6 497/2/6 500/2/6
f 499/4/6 496/4/6 500/4/6
f 497/4/6 498/4/6 501/4/6
f 500/2/6 497/2/6 501/2/6
f 498/4/6 494/4/6 502/4/6
f 501/4/6 498/4/6 502/4/6
